HIERARCHY
ROOT joint_Root
{
	OFFSET 0.0 0.0 0.0
	CHANNELS 6 Xposition Yposition Zposition Zrotation Xrotation Yrotation 
	JOINT Hips
	{
		OFFSET -0.726466 93.3139 -2.00062
		CHANNELS 6 Xposition Yposition Zposition Zrotation Xrotation Yrotation 
		JOINT Spine
		{
			OFFSET 15.7357 0.0 0.0
			CHANNELS 6 Xposition Yposition Zposition Zrotation Xrotation Yrotation 
			JOINT Chest
			{
				OFFSET 8.98455 -0.406207 0.0
				CHANNELS 6 Xposition Yposition Zposition Zrotation Xrotation Yrotation 
				JOINT Neck
				{
					OFFSET 16.3773 0.0 0.0
					CHANNELS 6 Xposition Yposition Zposition Zrotation Xrotation Yrotation 
					JOINT Head
					{
						OFFSET 6.45672 0.0 0.0
						CHANNELS 6 Xposition Yposition Zposition Zrotation Xrotation Yrotation 
						End Site
						{
							OFFSET 0.0 0.0 0.0
						}
					}
				}
				JOINT Shoulder_L
				{
					OFFSET 12.9942 -0.242716 4.98039
					CHANNELS 6 Xposition Yposition Zposition Zrotation Xrotation Yrotation 
					JOINT UpperArm_L
					{
						OFFSET 5.34809 0.0 0.0
						CHANNELS 6 Xposition Yposition Zposition Zrotation Xrotation Yrotation 
						JOINT LowerArm_L
						{
							OFFSET 24.3286 1.87007e-05 0.0
							CHANNELS 6 Xposition Yposition Zposition Zrotation Xrotation Yrotation 
							JOINT Hand_L
							{
								OFFSET 22.2916 0.0 0.0
								CHANNELS 6 Xposition Yposition Zposition Zrotation Xrotation Yrotation 
								End Site
								{
									OFFSET 0.0 0.0 0.0
								}
							}
						}
					}
				}
				JOINT Shoulder_R
				{
					OFFSET 12.9945 -0.242716 -4.98039
					CHANNELS 6 Xposition Yposition Zposition Zrotation Xrotation Yrotation 
					JOINT UpperArm_R
					{
						OFFSET -5.34813 0.0 0.0
						CHANNELS 6 Xposition Yposition Zposition Zrotation Xrotation Yrotation 
						JOINT LowerArm_R
						{
							OFFSET -24.3289 0.000322201 0.0
							CHANNELS 6 Xposition Yposition Zposition Zrotation Xrotation Yrotation 
							JOINT Hand_R
							{
								OFFSET -22.2915 -0.000108084 0.0
								CHANNELS 6 Xposition Yposition Zposition Zrotation Xrotation Yrotation 
								End Site
								{
									OFFSET 0.0 0.0 0.0
								}
							}
						}
					}
				}
			}
		}
		JOINT UpperLeg_L
		{
			OFFSET -2.19248 -6.46944 0.0
			CHANNELS 6 Xposition Yposition Zposition Zrotation Xrotation Yrotation 
			JOINT LowerLeg_L
			{
				OFFSET 39.0811 0.0 -1.23785e-05
				CHANNELS 6 Xposition Yposition Zposition Zrotation Xrotation Yrotation 
				JOINT Foot_L
				{
					OFFSET 40.9854 0.0 -1.26872e-05
					CHANNELS 6 Xposition Yposition Zposition Zrotation Xrotation Yrotation 
					JOINT Toes_L
					{
						OFFSET 11.7543 0.0 0.0
						CHANNELS 6 Xposition Yposition Zposition Zrotation Xrotation Yrotation 
						End Site
						{
							OFFSET 0.0 0.0 0.0
						}
					}
				}
			}
		}
		JOINT UpperLeg_R
		{
			OFFSET -2.19251 6.46944 0.0
			CHANNELS 6 Xposition Yposition Zposition Zrotation Xrotation Yrotation 
			JOINT LowerLeg_R
			{
				OFFSET -39.0811 -0.00228153 -0.0401928
				CHANNELS 6 Xposition Yposition Zposition Zrotation Xrotation Yrotation 
				JOINT Foot_R
				{
					OFFSET -40.9854 0.0 0.0
					CHANNELS 6 Xposition Yposition Zposition Zrotation Xrotation Yrotation 
					JOINT Toes_R
					{
						OFFSET -11.7543 0.0 0.0
						CHANNELS 6 Xposition Yposition Zposition Zrotation Xrotation Yrotation 
						End Site
						{
							OFFSET 0.0 0.0 0.0
						}
					}
				}
			}
		}
	}
}
MOTION
Frames:	4
Frame Time:	0.0333333
0.000000 0.000000 0.000000 0.000000 0.000000 -0.000000 -1.031690 92.409400 -1.916990 87.906400 -1.085080 3.948910 15.735700 0.000005 -0.000001 90.400900 85.269600 -90.173200 8.984550 -0.406207 -0.000000 1.694520 0.054097 0.454033 16.377300 -0.000001 -0.000001 3.835930 -2.810680 0.964634 6.456720 -0.000001 -0.000000 2.692590 -2.444470 -0.323020 12.994200 -0.242716 4.980390 -89.956300 -0.138234 -72.462300 5.348090 -0.000007 -0.000001 -67.273200 39.691900 -14.553300 24.328600 0.000019 0.000005 0.821310 1.989240 -22.438900 22.291600 -0.000001 0.000005 3.364820 5.456610 -4.877460 12.994500 -0.242716 -4.980390 87.699400 6.923600 -71.567900 -5.348130 -0.000001 -0.000004 -65.907900 36.937800 -15.082400 -24.328900 0.000322 -0.000009 2.385810 6.944610 -19.021500 -22.291500 -0.000108 -0.000004 10.638700 5.322050 -0.554544 -2.192480 -6.469440 -0.000000 -175.259000 -6.227610 -3.588710 39.081100 -0.000007 -0.000012 -0.105682 0.250946 22.837800 40.985400 -0.000006 -0.000013 -0.530182 2.972640 -65.468600 11.754300 -0.000000 0.000003 -0.000041 -0.000479 -16.596200 -2.192510 6.469440 -0.000001 -179.757000 12.855700 178.651000 -39.081100 -0.002282 -0.040193 -0.043018 0.131165 19.458400 -40.985400 0.000008 0.000006 3.063630 7.439070 -64.645000 -11.754300 -0.000006 -0.000006 -0.007773 -0.086171 -20.081800
0.000000 0.000000 0.000000 0.000000 0.000000 -0.000000 -1.051020 92.409800 -1.897640 87.929900 -1.038770 4.022310 15.735700 0.000005 -0.000001 90.396100 85.227000 -90.224000 8.984550 -0.406207 -0.000000 1.779590 0.056962 0.342992 16.377300 -0.000001 -0.000001 3.788720 -2.788140 0.941295 6.456720 -0.000001 -0.000000 2.616730 -2.441390 -0.506011 12.994200 -0.242716 4.980390 -89.947500 -0.165393 -72.396600 5.348090 -0.000007 -0.000001 -67.213400 39.713000 -14.618900 24.328600 0.000019 0.000005 0.816463 1.985040 -22.362000 22.291600 -0.000001 0.000005 3.418880 5.458040 -4.929410 12.994500 -0.242716 -4.980390 87.693000 6.934210 -71.546800 -5.348130 -0.000001 -0.000004 -65.454200 37.272500 -14.989800 -24.328900 0.000322 -0.000009 2.605910 6.830170 -20.948700 -22.291500 -0.000108 -0.000004 9.640060 5.304630 -0.054742 -2.192480 -6.469440 -0.000000 -175.273000 -6.057900 -3.490360 39.081100 -0.000007 -0.000012 -0.104132 0.247722 22.800000 40.985400 -0.000006 -0.000013 -0.561348 2.915960 -65.461800 11.754300 -0.000000 0.000003 -0.000025 -0.000305 -16.589500 -2.192510 6.469440 -0.000001 -179.794000 12.961500 178.739000 -39.081100 -0.002282 -0.040193 -0.043103 0.131296 19.473000 -40.985400 0.000008 0.000006 3.137080 7.461500 -64.684000 -11.754300 -0.000006 -0.000006 -0.007677 -0.085378 -20.049400
0.000000 0.000000 0.000000 0.000000 0.000000 -0.000000 -1.056060 92.415300 -1.910390 87.915600 -1.050170 4.017210 15.735700 0.000005 -0.000001 90.616300 85.211100 -90.494200 8.984550 -0.406207 -0.000000 1.811180 0.096614 0.242385 16.377300 -0.000001 -0.000001 3.714730 -2.732560 0.835368 6.456720 -0.000001 -0.000000 2.577020 -2.443730 -0.592224 12.994200 -0.242716 4.980390 -89.923500 -0.240318 -72.341400 5.348090 -0.000007 -0.000001 -67.322200 39.547500 -14.529800 24.328600 0.000019 0.000005 0.844725 2.052100 -22.378800 22.291600 -0.000001 0.000005 3.416510 5.456970 -4.890750 12.994500 -0.242716 -4.980390 87.629900 7.075110 -71.426200 -5.348130 -0.000001 -0.000004 -64.454600 37.445900 -14.872500 -24.328900 0.000322 -0.000009 2.953070 6.506540 -24.487700 -22.291500 -0.000108 -0.000004 7.399570 5.274680 0.777301 -2.192480 -6.469440 -0.000000 -175.251000 -6.077050 -3.477380 39.081100 -0.000007 -0.000012 -0.106663 0.254127 22.769000 40.985400 -0.000006 -0.000013 -0.567226 2.915040 -65.446800 11.754300 -0.000000 0.000003 -0.000033 -0.000397 -16.593000 -2.192510 6.469440 -0.000001 -179.769000 12.996400 178.747000 -39.081100 -0.002282 -0.040193 -0.041119 0.126015 19.426300 -40.985400 0.000008 0.000006 3.163760 7.503750 -64.655100 -11.754300 -0.000006 -0.000006 -0.007338 -0.082540 -19.933600
0.000000 0.000000 0.000000 0.000000 0.000000 -0.000000 -1.066000 92.408000 -1.924290 87.899200 -1.104450 4.017750 15.735700 0.000005 -0.000001 90.378300 85.204800 -90.284500 8.984550 -0.406207 -0.000000 1.824210 0.058413 0.186457 16.377300 -0.000001 -0.000001 3.676850 -2.636110 0.686354 6.456720 -0.000001 -0.000000 2.505070 -2.318020 -0.814558 12.994200 -0.242716 4.980390 -89.928800 -0.221851 -72.197600 5.348090 -0.000007 -0.000001 -67.342500 39.560100 -14.356400 24.328600 0.000019 0.000005 0.795075 1.924410 -22.452000 22.291600 -0.000001 0.000005 3.412670 5.455410 -4.834240 12.994500 -0.242716 -4.980390 87.576000 7.137410 -71.185800 -5.348130 -0.000001 -0.000004 -62.533800 38.032900 -15.279900 -24.328900 0.000322 -0.000009 3.221690 5.736700 -29.395000 -22.291500 -0.000108 -0.000004 4.676340 5.251220 1.406170 -2.192480 -6.469440 -0.000000 -175.240000 -6.107180 -3.533330 39.081100 -0.000007 -0.000012 -0.104233 0.247354 22.850200 40.985400 -0.000006 -0.000013 -0.569159 2.879310 -65.467500 11.754300 -0.000000 0.000003 -0.000028 -0.000343 -16.591000 -2.192510 6.469440 -0.000001 -179.755000 12.986600 178.706000 -39.081100 -0.002282 -0.040193 -0.043392 0.132086 19.476900 -40.985400 0.000008 0.000006 3.129400 7.528420 -64.656900 -11.754300 -0.000006 -0.000006 -0.007722 -0.085747 -20.064500
